<mxfile>
    <diagram id="kjB8sR7SFXR8PWjGHwVc" name="Page-1">
        <mxGraphModel dx="970" dy="721" grid="0" gridSize="10" guides="1" tooltips="1" connect="1" arrows="1" fold="1" page="1" pageScale="1" pageWidth="1169" pageHeight="827" background="#09555B" math="0" shadow="0">
            <root>
                <mxCell id="0"/>
                <mxCell id="1" parent="0"/>
                <mxCell id="uXNwLpY-OLBt-MWRGUnC-1" value="Login" style="ellipse;whiteSpace=wrap;html=1;fillColor=#B1DDF0;strokeColor=#BAC8D3;fontColor=#182E3E;" parent="1" vertex="1">
                    <mxGeometry x="354" y="70" width="116" height="70" as="geometry"/>
                </mxCell>
                <mxCell id="uXNwLpY-OLBt-MWRGUnC-3" value="&lt;span&gt;View Animal's Info&lt;/span&gt;" style="ellipse;whiteSpace=wrap;html=1;fillColor=#B1DDF0;strokeColor=#BAC8D3;fontColor=#182E3E;" parent="1" vertex="1">
                    <mxGeometry x="354" y="160" width="116" height="70" as="geometry"/>
                </mxCell>
                <mxCell id="uXNwLpY-OLBt-MWRGUnC-4" value="Contact &amp;nbsp;Info Of &amp;nbsp;Doctor" style="ellipse;whiteSpace=wrap;html=1;fillColor=#B1DDF0;strokeColor=#BAC8D3;fontColor=#182E3E;" parent="1" vertex="1">
                    <mxGeometry x="354" y="250" width="116" height="70" as="geometry"/>
                </mxCell>
                <mxCell id="uXNwLpY-OLBt-MWRGUnC-5" value="Add New Animal's &amp;nbsp;info" style="ellipse;whiteSpace=wrap;html=1;fillColor=#B1DDF0;strokeColor=#BAC8D3;fontColor=#182E3E;" parent="1" vertex="1">
                    <mxGeometry x="356" y="340" width="116" height="70" as="geometry"/>
                </mxCell>
                <mxCell id="uXNwLpY-OLBt-MWRGUnC-6" value="Add Doctor Contact Info" style="ellipse;whiteSpace=wrap;html=1;fillColor=#B1DDF0;strokeColor=#BAC8D3;fontColor=#182E3E;" parent="1" vertex="1">
                    <mxGeometry x="356" y="430" width="116" height="70" as="geometry"/>
                </mxCell>
                <mxCell id="uXNwLpY-OLBt-MWRGUnC-11" style="edgeStyle=orthogonalEdgeStyle;rounded=0;orthogonalLoop=1;jettySize=auto;html=1;exitX=1;exitY=0.5;exitDx=0;exitDy=0;entryX=0;entryY=0.5;entryDx=0;entryDy=0;labelBackgroundColor=#09555B;strokeColor=#EEEEEE;fontColor=#FFFFFF;" parent="1" target="uXNwLpY-OLBt-MWRGUnC-1" edge="1">
                    <mxGeometry relative="1" as="geometry">
                        <Array as="points">
                            <mxPoint x="267" y="280"/>
                            <mxPoint x="267" y="105"/>
                        </Array>
                        <mxPoint x="180" y="280" as="sourcePoint"/>
                    </mxGeometry>
                </mxCell>
                <mxCell id="uXNwLpY-OLBt-MWRGUnC-13" style="edgeStyle=orthogonalEdgeStyle;rounded=0;orthogonalLoop=1;jettySize=auto;html=1;exitX=1;exitY=0.5;exitDx=0;exitDy=0;entryX=0;entryY=0.5;entryDx=0;entryDy=0;labelBackgroundColor=#09555B;strokeColor=#EEEEEE;fontColor=#FFFFFF;" parent="1" target="uXNwLpY-OLBt-MWRGUnC-3" edge="1">
                    <mxGeometry relative="1" as="geometry">
                        <mxPoint x="180" y="280" as="sourcePoint"/>
                    </mxGeometry>
                </mxCell>
                <mxCell id="uXNwLpY-OLBt-MWRGUnC-14" style="edgeStyle=orthogonalEdgeStyle;rounded=0;orthogonalLoop=1;jettySize=auto;html=1;exitX=1;exitY=0.5;exitDx=0;exitDy=0;labelBackgroundColor=#09555B;strokeColor=#EEEEEE;fontColor=#FFFFFF;" parent="1" edge="1">
                    <mxGeometry relative="1" as="geometry">
                        <mxPoint x="180" y="280" as="targetPoint"/>
                        <mxPoint x="180" y="280" as="sourcePoint"/>
                    </mxGeometry>
                </mxCell>
                <mxCell id="uXNwLpY-OLBt-MWRGUnC-15" style="edgeStyle=orthogonalEdgeStyle;rounded=0;orthogonalLoop=1;jettySize=auto;html=1;exitX=0;exitY=0.5;exitDx=0;exitDy=0;entryX=1;entryY=0.5;entryDx=0;entryDy=0;labelBackgroundColor=#09555B;strokeColor=#EEEEEE;fontColor=#FFFFFF;" parent="1" target="uXNwLpY-OLBt-MWRGUnC-5" edge="1">
                    <mxGeometry relative="1" as="geometry">
                        <mxPoint x="640" y="280" as="sourcePoint"/>
                    </mxGeometry>
                </mxCell>
                <mxCell id="uXNwLpY-OLBt-MWRGUnC-16" style="edgeStyle=orthogonalEdgeStyle;rounded=0;orthogonalLoop=1;jettySize=auto;html=1;exitX=0;exitY=0.5;exitDx=0;exitDy=0;entryX=1;entryY=0.5;entryDx=0;entryDy=0;labelBackgroundColor=#09555B;strokeColor=#EEEEEE;fontColor=#FFFFFF;" parent="1" target="uXNwLpY-OLBt-MWRGUnC-6" edge="1">
                    <mxGeometry relative="1" as="geometry">
                        <mxPoint x="640" y="280" as="sourcePoint"/>
                    </mxGeometry>
                </mxCell>
                <mxCell id="uXNwLpY-OLBt-MWRGUnC-10" value="" style="endArrow=classic;html=1;exitX=1;exitY=0.5;exitDx=0;exitDy=0;labelBackgroundColor=#09555B;strokeColor=#EEEEEE;fontColor=#FFFFFF;" parent="1" edge="1">
                    <mxGeometry width="50" height="50" relative="1" as="geometry">
                        <mxPoint x="180" y="280" as="sourcePoint"/>
                        <mxPoint x="350" y="280" as="targetPoint"/>
                    </mxGeometry>
                </mxCell>
                <mxCell id="2" value="USER" style="shape=umlActor;verticalLabelPosition=bottom;verticalAlign=top;html=1;outlineConnect=0;" parent="1" vertex="1">
                    <mxGeometry x="146" y="250" width="30" height="60" as="geometry"/>
                </mxCell>
                <mxCell id="5" value="DEVLOPER" style="shape=umlActor;verticalLabelPosition=bottom;verticalAlign=top;html=1;outlineConnect=0;" parent="1" vertex="1">
                    <mxGeometry x="641" y="250" width="30" height="60" as="geometry"/>
                </mxCell>
            </root>
        </mxGraphModel>
    </diagram>
</mxfile>
